<mxfile host="Electron" agent="Mozilla/5.0 (Windows NT 10.0; Win64; x64) AppleWebKit/537.36 (KHTML, like Gecko) draw.io/26.0.9 Chrome/128.0.6613.186 Electron/32.2.5 Safari/537.36" version="26.0.9">
  <diagram name="Page-1" id="stubMuT7CdCw7u1-jpZv">
    <mxGraphModel dx="1304" dy="767" grid="1" gridSize="10" guides="1" tooltips="1" connect="1" arrows="1" fold="1" page="1" pageScale="1" pageWidth="4681" pageHeight="3300" math="0" shadow="0">
      <root>
        <mxCell id="0" />
        <mxCell id="1" parent="0" />
        <mxCell id="tZD9DGKlAg4jo_WMVVw5-28" style="rounded=0;orthogonalLoop=1;jettySize=auto;html=1;exitX=1;exitY=0.5;exitDx=0;exitDy=0;entryX=0;entryY=0.5;entryDx=0;entryDy=0;strokeWidth=1;labelBackgroundColor=none;fontColor=#FCFCFC;fontSize=1;" parent="1" source="tZD9DGKlAg4jo_WMVVw5-2" target="tZD9DGKlAg4jo_WMVVw5-24" edge="1">
          <mxGeometry relative="1" as="geometry" />
        </mxCell>
        <mxCell id="tZD9DGKlAg4jo_WMVVw5-31" value="game_id" style="text;html=1;align=center;verticalAlign=middle;whiteSpace=wrap;rounded=0;" parent="1" vertex="1">
          <mxGeometry x="1710" y="1440" width="60" height="30" as="geometry" />
        </mxCell>
        <mxCell id="tZD9DGKlAg4jo_WMVVw5-32" style="rounded=0;orthogonalLoop=1;jettySize=auto;html=1;exitX=0;exitY=0.5;exitDx=0;exitDy=0;entryX=1;entryY=0.5;entryDx=0;entryDy=0;strokeWidth=1;" parent="1" source="tZD9DGKlAg4jo_WMVVw5-20" target="tZD9DGKlAg4jo_WMVVw5-24" edge="1">
          <mxGeometry relative="1" as="geometry" />
        </mxCell>
        <mxCell id="tZD9DGKlAg4jo_WMVVw5-33" value="user_id" style="text;html=1;align=center;verticalAlign=middle;whiteSpace=wrap;rounded=0;" parent="1" vertex="1">
          <mxGeometry x="1990" y="1440" width="60" height="30" as="geometry" />
        </mxCell>
        <mxCell id="tZD9DGKlAg4jo_WMVVw5-47" value="" style="group" parent="1" vertex="1" connectable="0">
          <mxGeometry x="2621" y="470" width="200" height="360" as="geometry" />
        </mxCell>
        <mxCell id="tZD9DGKlAg4jo_WMVVw5-37" value="" style="group;fillColor=#d5e8d4;strokeColor=#82b366;" parent="tZD9DGKlAg4jo_WMVVw5-47" vertex="1" connectable="0">
          <mxGeometry width="200" height="200" as="geometry" />
        </mxCell>
        <mxCell id="tZD9DGKlAg4jo_WMVVw5-38" value="table_aliases" style="rounded=0;whiteSpace=wrap;html=1;fillColor=#d5e8d4;strokeColor=#82b366;" parent="tZD9DGKlAg4jo_WMVVw5-37" vertex="1">
          <mxGeometry width="200" height="40" as="geometry" />
        </mxCell>
        <mxCell id="tZD9DGKlAg4jo_WMVVw5-39" value="alias_id: Int&lt;div&gt;alias_name: String&lt;/div&gt;" style="rounded=0;whiteSpace=wrap;html=1;fillColor=#d5e8d4;strokeColor=#82b366;" parent="tZD9DGKlAg4jo_WMVVw5-37" vertex="1">
          <mxGeometry y="40" width="200" height="160" as="geometry" />
        </mxCell>
        <mxCell id="tZD9DGKlAg4jo_WMVVw5-46" value="This table will be used for when a user is unsure of the exact name of a tag. We can link tags to other similar words.&lt;div&gt;E.G: A user searches &quot;driving&quot; in the tags. The website will then use the aliases to relate that to the actual tags like:&lt;br&gt;Driving -&amp;gt; Racing&lt;/div&gt;&lt;div&gt;Though they are genres, you get the point.&lt;/div&gt;" style="rounded=0;whiteSpace=wrap;html=1;fillColor=#d5e8d4;strokeColor=#82b366;" parent="tZD9DGKlAg4jo_WMVVw5-47" vertex="1">
          <mxGeometry y="200" width="200" height="160" as="geometry" />
        </mxCell>
        <mxCell id="tZD9DGKlAg4jo_WMVVw5-49" value="" style="group" parent="1" vertex="1" connectable="0">
          <mxGeometry x="2061" y="470" width="200" height="360" as="geometry" />
        </mxCell>
        <mxCell id="tZD9DGKlAg4jo_WMVVw5-36" value="" style="group" parent="tZD9DGKlAg4jo_WMVVw5-49" vertex="1" connectable="0">
          <mxGeometry width="200" height="200" as="geometry" />
        </mxCell>
        <mxCell id="tZD9DGKlAg4jo_WMVVw5-3" value="table_tags" style="rounded=0;whiteSpace=wrap;html=1;fillColor=#d5e8d4;strokeColor=#82b366;" parent="tZD9DGKlAg4jo_WMVVw5-36" vertex="1">
          <mxGeometry width="200" height="40" as="geometry" />
        </mxCell>
        <mxCell id="tZD9DGKlAg4jo_WMVVw5-34" value="tag_id: Int&lt;div&gt;tag_name: String&lt;/div&gt;&lt;div&gt;tag_description: String&lt;/div&gt;&lt;div&gt;tag_type: String&lt;/div&gt;&lt;div&gt;tag_isNSFW: Boolean&lt;/div&gt;" style="rounded=0;whiteSpace=wrap;html=1;fillColor=#d5e8d4;strokeColor=#82b366;" parent="tZD9DGKlAg4jo_WMVVw5-36" vertex="1">
          <mxGeometry y="40" width="200" height="160" as="geometry" />
        </mxCell>
        <mxCell id="tZD9DGKlAg4jo_WMVVw5-48" value="This table will store tags. Tags describes the games further than the genres do. For example, a game might come under the racing genre, but a tag will further clarify that it is a &quot;simulation&quot; with &quot;first person driving&quot; etc.&lt;div&gt;Tags can only be applied to games once approved.&lt;/div&gt;" style="rounded=0;whiteSpace=wrap;html=1;fillColor=#d5e8d4;strokeColor=#82b366;" parent="tZD9DGKlAg4jo_WMVVw5-49" vertex="1">
          <mxGeometry y="200" width="200" height="160" as="geometry" />
        </mxCell>
        <mxCell id="tZD9DGKlAg4jo_WMVVw5-51" value="" style="group" parent="1" vertex="1" connectable="0">
          <mxGeometry x="2341" y="470" width="200" height="360" as="geometry" />
        </mxCell>
        <mxCell id="tZD9DGKlAg4jo_WMVVw5-40" value="" style="group;fillColor=#e1d5e7;strokeColor=#9673a6;" parent="tZD9DGKlAg4jo_WMVVw5-51" vertex="1" connectable="0">
          <mxGeometry width="200" height="200" as="geometry" />
        </mxCell>
        <mxCell id="tZD9DGKlAg4jo_WMVVw5-41" value="link_tags_aliases" style="rounded=0;whiteSpace=wrap;html=1;fillColor=#e1d5e7;strokeColor=#9673a6;" parent="tZD9DGKlAg4jo_WMVVw5-40" vertex="1">
          <mxGeometry width="200" height="40" as="geometry" />
        </mxCell>
        <mxCell id="tZD9DGKlAg4jo_WMVVw5-42" value="tag_id: Int&lt;div&gt;alias_id: Int&lt;/div&gt;&lt;div&gt;user_id: Int&lt;/div&gt;&lt;div&gt;link_date: String&lt;/div&gt;" style="rounded=0;whiteSpace=wrap;html=1;fillColor=#e1d5e7;strokeColor=#9673a6;" parent="tZD9DGKlAg4jo_WMVVw5-40" vertex="1">
          <mxGeometry y="40" width="200" height="160" as="geometry" />
        </mxCell>
        <mxCell id="tZD9DGKlAg4jo_WMVVw5-50" value="Links tag aliases to the actual tags. Also stores the user who linked the aliases and the time that they were linked." style="rounded=0;whiteSpace=wrap;html=1;fillColor=#e1d5e7;strokeColor=#9673a6;" parent="tZD9DGKlAg4jo_WMVVw5-51" vertex="1">
          <mxGeometry y="200" width="200" height="160" as="geometry" />
        </mxCell>
        <mxCell id="tZD9DGKlAg4jo_WMVVw5-58" value="" style="group" parent="1" vertex="1" connectable="0">
          <mxGeometry x="1500" y="1350" width="200" height="360" as="geometry" />
        </mxCell>
        <mxCell id="tZD9DGKlAg4jo_WMVVw5-19" value="" style="group;fillColor=#d5e8d4;strokeColor=#82b366;" parent="tZD9DGKlAg4jo_WMVVw5-58" vertex="1" connectable="0">
          <mxGeometry width="200" height="200" as="geometry" />
        </mxCell>
        <mxCell id="tZD9DGKlAg4jo_WMVVw5-1" value="table_games" style="rounded=0;whiteSpace=wrap;html=1;fillColor=#d5e8d4;strokeColor=#82b366;" parent="tZD9DGKlAg4jo_WMVVw5-19" vertex="1">
          <mxGeometry width="200" height="40" as="geometry" />
        </mxCell>
        <mxCell id="tZD9DGKlAg4jo_WMVVw5-2" value="game_id: int&lt;br&gt;game_title: String&lt;div&gt;game_aka: String&lt;br&gt;&lt;div&gt;game_desc: String&lt;/div&gt;&lt;div&gt;game_rdate: String&lt;/div&gt;&lt;/div&gt;&lt;div&gt;game_rstat: String or Int&lt;/div&gt;" style="rounded=0;whiteSpace=wrap;html=1;fillColor=#d5e8d4;strokeColor=#82b366;" parent="tZD9DGKlAg4jo_WMVVw5-19" vertex="1">
          <mxGeometry y="40" width="200" height="160" as="geometry" />
        </mxCell>
        <mxCell id="tZD9DGKlAg4jo_WMVVw5-57" value="&lt;div&gt;Describes the games. Who would&#39;ve guessed?&lt;/div&gt;" style="rounded=0;whiteSpace=wrap;html=1;fillColor=#d5e8d4;strokeColor=#82b366;" parent="tZD9DGKlAg4jo_WMVVw5-58" vertex="1">
          <mxGeometry y="200" width="200" height="160" as="geometry" />
        </mxCell>
        <mxCell id="tZD9DGKlAg4jo_WMVVw5-60" value="" style="group" parent="1" vertex="1" connectable="0">
          <mxGeometry x="1780" y="1350" width="200" height="360" as="geometry" />
        </mxCell>
        <mxCell id="tZD9DGKlAg4jo_WMVVw5-25" value="" style="group" parent="tZD9DGKlAg4jo_WMVVw5-60" vertex="1" connectable="0">
          <mxGeometry width="200" height="200" as="geometry" />
        </mxCell>
        <mxCell id="tZD9DGKlAg4jo_WMVVw5-23" value="link_game_user" style="rounded=0;whiteSpace=wrap;html=1;fillColor=#e1d5e7;strokeColor=#9673a6;" parent="tZD9DGKlAg4jo_WMVVw5-25" vertex="1">
          <mxGeometry width="200" height="40" as="geometry" />
        </mxCell>
        <mxCell id="tZD9DGKlAg4jo_WMVVw5-24" value="&lt;div&gt;game_id: Int&lt;/div&gt;&lt;div&gt;user_id: Int&lt;/div&gt;&lt;div&gt;fave_datetime: String&lt;/div&gt;" style="rounded=0;whiteSpace=wrap;html=1;fillColor=#e1d5e7;strokeColor=#9673a6;" parent="tZD9DGKlAg4jo_WMVVw5-25" vertex="1">
          <mxGeometry y="40" width="200" height="160" as="geometry" />
        </mxCell>
        <mxCell id="tZD9DGKlAg4jo_WMVVw5-59" value="&lt;div&gt;Links games to users to represent the user having favourited said game.&lt;/div&gt;" style="rounded=0;whiteSpace=wrap;html=1;fillColor=#e1d5e7;strokeColor=#9673a6;" parent="tZD9DGKlAg4jo_WMVVw5-60" vertex="1">
          <mxGeometry y="200" width="200" height="160" as="geometry" />
        </mxCell>
        <mxCell id="tZD9DGKlAg4jo_WMVVw5-62" value="" style="group" parent="1" vertex="1" connectable="0">
          <mxGeometry x="2060" y="1350" width="200" height="360" as="geometry" />
        </mxCell>
        <mxCell id="tZD9DGKlAg4jo_WMVVw5-21" value="" style="group;fillColor=#d5e8d4;strokeColor=#82b366;" parent="tZD9DGKlAg4jo_WMVVw5-62" vertex="1" connectable="0">
          <mxGeometry width="200" height="200" as="geometry" />
        </mxCell>
        <mxCell id="tZD9DGKlAg4jo_WMVVw5-14" value="table_users" style="rounded=0;whiteSpace=wrap;html=1;fillColor=#d5e8d4;strokeColor=#82b366;" parent="tZD9DGKlAg4jo_WMVVw5-21" vertex="1">
          <mxGeometry width="200" height="40" as="geometry" />
        </mxCell>
        <mxCell id="tZD9DGKlAg4jo_WMVVw5-20" value="&lt;div&gt;user_id: int&lt;/div&gt;user_name: String&lt;div&gt;user_pass: Int&lt;/div&gt;&lt;div&gt;user_email: String&lt;/div&gt;&lt;div&gt;user_desc: String&lt;/div&gt;&lt;div&gt;user_pfp: String&lt;/div&gt;&lt;div&gt;user_isAdmin: Boolean&lt;/div&gt;&lt;div&gt;user_isMod: Boolean&lt;/div&gt;" style="rounded=0;whiteSpace=wrap;html=1;fillColor=#d5e8d4;strokeColor=#82b366;" parent="tZD9DGKlAg4jo_WMVVw5-21" vertex="1">
          <mxGeometry y="40" width="200" height="160" as="geometry" />
        </mxCell>
        <mxCell id="tZD9DGKlAg4jo_WMVVw5-61" value="&lt;div&gt;Describes users. A user can be an admin which allows for control of the website (DANGEROUS) or a mod that can moderate game information to make sure it&#39;s correct and approve or deny any changes made by other users.&lt;/div&gt;" style="rounded=0;whiteSpace=wrap;html=1;fillColor=#d5e8d4;strokeColor=#82b366;" parent="tZD9DGKlAg4jo_WMVVw5-62" vertex="1">
          <mxGeometry y="200" width="200" height="160" as="geometry" />
        </mxCell>
        <mxCell id="tZD9DGKlAg4jo_WMVVw5-63" value="" style="group" parent="1" vertex="1" connectable="0">
          <mxGeometry x="2060" y="910" width="200" height="360" as="geometry" />
        </mxCell>
        <mxCell id="tZD9DGKlAg4jo_WMVVw5-64" value="" style="group;fillColor=#e1d5e7;strokeColor=#9673a6;" parent="tZD9DGKlAg4jo_WMVVw5-63" vertex="1" connectable="0">
          <mxGeometry width="200" height="200" as="geometry" />
        </mxCell>
        <mxCell id="tZD9DGKlAg4jo_WMVVw5-65" value="link_tag_user" style="rounded=0;whiteSpace=wrap;html=1;fillColor=#e1d5e7;strokeColor=#9673a6;" parent="tZD9DGKlAg4jo_WMVVw5-64" vertex="1">
          <mxGeometry width="200" height="40" as="geometry" />
        </mxCell>
        <mxCell id="tZD9DGKlAg4jo_WMVVw5-66" value="tag_id: Int&lt;div&gt;user_id: Int&lt;/div&gt;&lt;div&gt;tag_created: Boolean&lt;/div&gt;&lt;div&gt;tag_cDate: String&lt;/div&gt;&lt;div&gt;tag_approved: Boolean&lt;/div&gt;&lt;div&gt;tag_aDate: String&lt;/div&gt;" style="rounded=0;whiteSpace=wrap;html=1;fillColor=#e1d5e7;strokeColor=#9673a6;" parent="tZD9DGKlAg4jo_WMVVw5-64" vertex="1">
          <mxGeometry y="40" width="200" height="160" as="geometry" />
        </mxCell>
        <mxCell id="tZD9DGKlAg4jo_WMVVw5-67" value="Links users to tags to:&lt;div&gt;-Show that the user created the tag.&lt;/div&gt;&lt;div&gt;OR&lt;/div&gt;&lt;div&gt;-Show that a mod/admin approved the tag for use.&lt;/div&gt;" style="rounded=0;whiteSpace=wrap;html=1;fillColor=#e1d5e7;strokeColor=#9673a6;" parent="tZD9DGKlAg4jo_WMVVw5-63" vertex="1">
          <mxGeometry y="200" width="200" height="160" as="geometry" />
        </mxCell>
        <mxCell id="tZD9DGKlAg4jo_WMVVw5-69" style="edgeStyle=orthogonalEdgeStyle;rounded=0;orthogonalLoop=1;jettySize=auto;html=1;exitX=1;exitY=0.75;exitDx=0;exitDy=0;entryX=0;entryY=0.75;entryDx=0;entryDy=0;strokeWidth=1;" parent="1" source="tZD9DGKlAg4jo_WMVVw5-34" target="tZD9DGKlAg4jo_WMVVw5-42" edge="1">
          <mxGeometry relative="1" as="geometry" />
        </mxCell>
        <mxCell id="tZD9DGKlAg4jo_WMVVw5-70" style="edgeStyle=orthogonalEdgeStyle;rounded=0;orthogonalLoop=1;jettySize=auto;html=1;exitX=0;exitY=0.75;exitDx=0;exitDy=0;entryX=1;entryY=0.75;entryDx=0;entryDy=0;strokeWidth=1;" parent="1" source="tZD9DGKlAg4jo_WMVVw5-39" target="tZD9DGKlAg4jo_WMVVw5-42" edge="1">
          <mxGeometry relative="1" as="geometry" />
        </mxCell>
        <mxCell id="tZD9DGKlAg4jo_WMVVw5-71" value="alias_id" style="text;html=1;align=center;verticalAlign=middle;whiteSpace=wrap;rounded=0;" parent="1" vertex="1">
          <mxGeometry x="2551" y="600" width="60" height="30" as="geometry" />
        </mxCell>
        <mxCell id="tZD9DGKlAg4jo_WMVVw5-72" value="tag_id" style="text;html=1;align=center;verticalAlign=middle;whiteSpace=wrap;rounded=0;" parent="1" vertex="1">
          <mxGeometry x="2271" y="600" width="60" height="30" as="geometry" />
        </mxCell>
        <mxCell id="tZD9DGKlAg4jo_WMVVw5-73" style="edgeStyle=none;rounded=0;orthogonalLoop=1;jettySize=auto;html=1;exitX=0.5;exitY=0;exitDx=0;exitDy=0;entryX=0.5;entryY=1;entryDx=0;entryDy=0;strokeColor=#FF0000;" parent="1" source="tZD9DGKlAg4jo_WMVVw5-14" target="tZD9DGKlAg4jo_WMVVw5-67" edge="1">
          <mxGeometry relative="1" as="geometry" />
        </mxCell>
        <mxCell id="tZD9DGKlAg4jo_WMVVw5-74" value="user_id" style="text;html=1;align=center;verticalAlign=middle;whiteSpace=wrap;rounded=0;" parent="1" vertex="1">
          <mxGeometry x="2160" y="1290" width="60" height="30" as="geometry" />
        </mxCell>
        <mxCell id="tZD9DGKlAg4jo_WMVVw5-76" style="edgeStyle=none;rounded=0;orthogonalLoop=1;jettySize=auto;html=1;exitX=0.5;exitY=1;exitDx=0;exitDy=0;" parent="1" source="tZD9DGKlAg4jo_WMVVw5-48" target="tZD9DGKlAg4jo_WMVVw5-65" edge="1">
          <mxGeometry relative="1" as="geometry" />
        </mxCell>
        <mxCell id="tZD9DGKlAg4jo_WMVVw5-77" value="tag_id" style="text;html=1;align=center;verticalAlign=middle;whiteSpace=wrap;rounded=0;" parent="1" vertex="1">
          <mxGeometry x="2160" y="860" width="60" height="30" as="geometry" />
        </mxCell>
        <mxCell id="tZD9DGKlAg4jo_WMVVw5-78" value="" style="group" parent="1" vertex="1" connectable="0">
          <mxGeometry x="2620" y="910" width="200" height="360" as="geometry" />
        </mxCell>
        <mxCell id="tZD9DGKlAg4jo_WMVVw5-79" value="" style="group;fillColor=#e1d5e7;strokeColor=#9673a6;" parent="tZD9DGKlAg4jo_WMVVw5-78" vertex="1" connectable="0">
          <mxGeometry width="200" height="200" as="geometry" />
        </mxCell>
        <mxCell id="tZD9DGKlAg4jo_WMVVw5-80" value="link_alias_user" style="rounded=0;whiteSpace=wrap;html=1;fillColor=#e1d5e7;strokeColor=#9673a6;" parent="tZD9DGKlAg4jo_WMVVw5-79" vertex="1">
          <mxGeometry width="200" height="40" as="geometry" />
        </mxCell>
        <mxCell id="tZD9DGKlAg4jo_WMVVw5-81" value="alias_id: Int&lt;div&gt;user_id: Int&lt;/div&gt;&lt;div&gt;alias_created: Boolean&lt;/div&gt;&lt;div&gt;alias_cDate: String&lt;/div&gt;&lt;div&gt;alias_approved: Boolean&lt;/div&gt;&lt;div&gt;alias_aDate: String&lt;/div&gt;" style="rounded=0;whiteSpace=wrap;html=1;fillColor=#e1d5e7;strokeColor=#9673a6;" parent="tZD9DGKlAg4jo_WMVVw5-79" vertex="1">
          <mxGeometry y="40" width="200" height="160" as="geometry" />
        </mxCell>
        <mxCell id="tZD9DGKlAg4jo_WMVVw5-82" value="Links users to tag aliases to show that they created said alias.&lt;div&gt;Behaves like link_tag_user in regards to approval and creation.&lt;/div&gt;" style="rounded=0;whiteSpace=wrap;html=1;fillColor=#e1d5e7;strokeColor=#9673a6;" parent="tZD9DGKlAg4jo_WMVVw5-78" vertex="1">
          <mxGeometry y="200" width="200" height="160" as="geometry" />
        </mxCell>
        <mxCell id="tZD9DGKlAg4jo_WMVVw5-83" style="edgeStyle=orthogonalEdgeStyle;rounded=0;orthogonalLoop=1;jettySize=auto;html=1;exitX=0.5;exitY=0;exitDx=0;exitDy=0;entryX=0.5;entryY=1;entryDx=0;entryDy=0;strokeColor=#FF0000;" parent="1" source="tZD9DGKlAg4jo_WMVVw5-14" target="tZD9DGKlAg4jo_WMVVw5-82" edge="1">
          <mxGeometry relative="1" as="geometry">
            <Array as="points">
              <mxPoint x="2160" y="1320" />
              <mxPoint x="2720" y="1320" />
            </Array>
          </mxGeometry>
        </mxCell>
        <mxCell id="tZD9DGKlAg4jo_WMVVw5-84" style="edgeStyle=orthogonalEdgeStyle;rounded=0;orthogonalLoop=1;jettySize=auto;html=1;exitX=0.5;exitY=1;exitDx=0;exitDy=0;entryX=0.5;entryY=0;entryDx=0;entryDy=0;" parent="1" source="tZD9DGKlAg4jo_WMVVw5-46" target="tZD9DGKlAg4jo_WMVVw5-80" edge="1">
          <mxGeometry relative="1" as="geometry" />
        </mxCell>
        <mxCell id="tZD9DGKlAg4jo_WMVVw5-85" value="alias_id" style="text;html=1;align=center;verticalAlign=middle;whiteSpace=wrap;rounded=0;" parent="1" vertex="1">
          <mxGeometry x="2660" y="840" width="60" height="30" as="geometry" />
        </mxCell>
        <mxCell id="tZD9DGKlAg4jo_WMVVw5-88" style="edgeStyle=orthogonalEdgeStyle;rounded=0;orthogonalLoop=1;jettySize=auto;html=1;exitX=0.5;exitY=0;exitDx=0;exitDy=0;entryX=0.5;entryY=1;entryDx=0;entryDy=0;strokeColor=#FF0000;" parent="1" source="tZD9DGKlAg4jo_WMVVw5-14" target="tZD9DGKlAg4jo_WMVVw5-50" edge="1">
          <mxGeometry relative="1" as="geometry">
            <Array as="points">
              <mxPoint x="2160" y="1320" />
              <mxPoint x="2441" y="1320" />
            </Array>
          </mxGeometry>
        </mxCell>
        <mxCell id="tZD9DGKlAg4jo_WMVVw5-96" style="edgeStyle=orthogonalEdgeStyle;rounded=0;orthogonalLoop=1;jettySize=auto;html=1;exitX=0;exitY=0.75;exitDx=0;exitDy=0;entryX=1;entryY=0.75;entryDx=0;entryDy=0;startArrow=block;startFill=0;endArrow=block;endFill=0;dashed=1;" parent="1" source="tZD9DGKlAg4jo_WMVVw5-82" target="tZD9DGKlAg4jo_WMVVw5-67" edge="1">
          <mxGeometry relative="1" as="geometry" />
        </mxCell>
        <mxCell id="tZD9DGKlAg4jo_WMVVw5-107" value="" style="group" parent="1" vertex="1" connectable="0">
          <mxGeometry x="1780" y="1790" width="201" height="360" as="geometry" />
        </mxCell>
        <mxCell id="tZD9DGKlAg4jo_WMVVw5-99" value="" style="group" parent="tZD9DGKlAg4jo_WMVVw5-107" vertex="1" connectable="0">
          <mxGeometry width="201" height="200" as="geometry" />
        </mxCell>
        <mxCell id="tZD9DGKlAg4jo_WMVVw5-10" value="table_genres" style="rounded=0;whiteSpace=wrap;html=1;fillColor=#d5e8d4;strokeColor=#82b366;" parent="tZD9DGKlAg4jo_WMVVw5-99" vertex="1">
          <mxGeometry x="1" width="200" height="40" as="geometry" />
        </mxCell>
        <mxCell id="tZD9DGKlAg4jo_WMVVw5-98" value="&lt;div&gt;genre_id: Int&lt;/div&gt;&lt;div&gt;genre_name: String&lt;/div&gt;&lt;div&gt;genre_description: String&lt;/div&gt;&lt;div&gt;genre_isNSFW: Boolean&lt;/div&gt;" style="rounded=0;whiteSpace=wrap;html=1;fillColor=#d5e8d4;strokeColor=#82b366;" parent="tZD9DGKlAg4jo_WMVVw5-99" vertex="1">
          <mxGeometry x="1" y="40" width="200" height="160" as="geometry" />
        </mxCell>
        <mxCell id="tZD9DGKlAg4jo_WMVVw5-106" value="This table will store genres. Describes the overall content of the game, but not as in depth as the tags do." style="rounded=0;whiteSpace=wrap;html=1;fillColor=#d5e8d4;strokeColor=#82b366;" parent="tZD9DGKlAg4jo_WMVVw5-107" vertex="1">
          <mxGeometry x="1" y="200" width="200" height="160" as="geometry" />
        </mxCell>
        <mxCell id="tZD9DGKlAg4jo_WMVVw5-117" value="user_id" style="text;html=1;align=center;verticalAlign=middle;whiteSpace=wrap;rounded=0;" parent="1" vertex="1">
          <mxGeometry x="2100" y="1290" width="60" height="30" as="geometry" />
        </mxCell>
        <mxCell id="tZD9DGKlAg4jo_WMVVw5-129" value="" style="group;dashed=1;" parent="1" vertex="1" connectable="0">
          <mxGeometry x="2060" y="1790" width="200" height="360" as="geometry" />
        </mxCell>
        <mxCell id="tZD9DGKlAg4jo_WMVVw5-130" value="" style="group;fillColor=#e1d5e7;strokeColor=#9673a6;" parent="tZD9DGKlAg4jo_WMVVw5-129" vertex="1" connectable="0">
          <mxGeometry width="200" height="200" as="geometry" />
        </mxCell>
        <mxCell id="tZD9DGKlAg4jo_WMVVw5-131" value="link_genre_user" style="rounded=0;whiteSpace=wrap;html=1;fillColor=#e1d5e7;strokeColor=#9673a6;" parent="tZD9DGKlAg4jo_WMVVw5-130" vertex="1">
          <mxGeometry width="200" height="40" as="geometry" />
        </mxCell>
        <mxCell id="tZD9DGKlAg4jo_WMVVw5-158" style="edgeStyle=orthogonalEdgeStyle;rounded=0;orthogonalLoop=1;jettySize=auto;html=1;exitX=1;exitY=0.25;exitDx=0;exitDy=0;dashed=1;startArrow=block;startFill=0;endArrow=none;" parent="tZD9DGKlAg4jo_WMVVw5-130" source="tZD9DGKlAg4jo_WMVVw5-132" edge="1">
          <mxGeometry relative="1" as="geometry">
            <mxPoint x="360" y="-560" as="targetPoint" />
          </mxGeometry>
        </mxCell>
        <mxCell id="tZD9DGKlAg4jo_WMVVw5-132" value="genre_id: Int&lt;div&gt;user_id: Int&lt;/div&gt;&lt;div&gt;genre_created: Boolean&lt;/div&gt;&lt;div&gt;genre_cDate: String&lt;/div&gt;&lt;div&gt;genre_approved: Boolean&lt;/div&gt;&lt;div&gt;genre_aDate: String&lt;/div&gt;" style="rounded=0;whiteSpace=wrap;html=1;fillColor=#e1d5e7;strokeColor=#9673a6;" parent="tZD9DGKlAg4jo_WMVVw5-130" vertex="1">
          <mxGeometry y="40" width="200" height="160" as="geometry" />
        </mxCell>
        <mxCell id="tZD9DGKlAg4jo_WMVVw5-133" value="Links users to genres to:&lt;div&gt;-Show that the user created the genre.&lt;/div&gt;&lt;div&gt;OR&lt;/div&gt;&lt;div&gt;-Show that a mod/admin approved the genre for use.&lt;/div&gt;" style="rounded=0;whiteSpace=wrap;html=1;fillColor=#e1d5e7;strokeColor=#9673a6;" parent="tZD9DGKlAg4jo_WMVVw5-129" vertex="1">
          <mxGeometry y="200" width="200" height="160" as="geometry" />
        </mxCell>
        <mxCell id="tZD9DGKlAg4jo_WMVVw5-134" style="edgeStyle=orthogonalEdgeStyle;rounded=0;orthogonalLoop=1;jettySize=auto;html=1;exitX=0.5;exitY=1;exitDx=0;exitDy=0;strokeColor=#FF0000;" parent="1" source="tZD9DGKlAg4jo_WMVVw5-61" target="tZD9DGKlAg4jo_WMVVw5-131" edge="1">
          <mxGeometry relative="1" as="geometry" />
        </mxCell>
        <mxCell id="tZD9DGKlAg4jo_WMVVw5-137" value="genre_id" style="text;html=1;align=center;verticalAlign=middle;whiteSpace=wrap;rounded=0;" parent="1" vertex="1">
          <mxGeometry x="1990" y="1880" width="60" height="30" as="geometry" />
        </mxCell>
        <mxCell id="tZD9DGKlAg4jo_WMVVw5-138" value="user_id" style="text;html=1;align=center;verticalAlign=middle;whiteSpace=wrap;rounded=0;" parent="1" vertex="1">
          <mxGeometry x="2160" y="1720" width="60" height="30" as="geometry" />
        </mxCell>
        <mxCell id="tZD9DGKlAg4jo_WMVVw5-139" value="" style="group" parent="1" vertex="1" connectable="0">
          <mxGeometry x="1500" y="1790" width="200" height="360" as="geometry" />
        </mxCell>
        <mxCell id="tZD9DGKlAg4jo_WMVVw5-140" value="" style="group" parent="tZD9DGKlAg4jo_WMVVw5-139" vertex="1" connectable="0">
          <mxGeometry width="200" height="200" as="geometry" />
        </mxCell>
        <mxCell id="tZD9DGKlAg4jo_WMVVw5-141" value="link_game_genre" style="rounded=0;whiteSpace=wrap;html=1;fillColor=#e1d5e7;strokeColor=#9673a6;" parent="tZD9DGKlAg4jo_WMVVw5-140" vertex="1">
          <mxGeometry width="200" height="40" as="geometry" />
        </mxCell>
        <mxCell id="tZD9DGKlAg4jo_WMVVw5-142" value="&lt;div&gt;game_id: Int&lt;/div&gt;&lt;div&gt;genre_id: Int&lt;/div&gt;&lt;div&gt;user_id: Int&lt;/div&gt;&lt;div&gt;link_cDate: String&lt;/div&gt;" style="rounded=0;whiteSpace=wrap;html=1;fillColor=#e1d5e7;strokeColor=#9673a6;" parent="tZD9DGKlAg4jo_WMVVw5-140" vertex="1">
          <mxGeometry y="40" width="200" height="160" as="geometry" />
        </mxCell>
        <mxCell id="tZD9DGKlAg4jo_WMVVw5-143" value="&lt;div&gt;Links games to users to represent the user having favourited said game.&lt;/div&gt;" style="rounded=0;whiteSpace=wrap;html=1;fillColor=#e1d5e7;strokeColor=#9673a6;" parent="tZD9DGKlAg4jo_WMVVw5-139" vertex="1">
          <mxGeometry y="200" width="200" height="160" as="geometry" />
        </mxCell>
        <mxCell id="tZD9DGKlAg4jo_WMVVw5-145" style="edgeStyle=orthogonalEdgeStyle;rounded=0;orthogonalLoop=1;jettySize=auto;html=1;exitX=1;exitY=0.5;exitDx=0;exitDy=0;entryX=0;entryY=0.5;entryDx=0;entryDy=0;" parent="1" source="tZD9DGKlAg4jo_WMVVw5-98" target="tZD9DGKlAg4jo_WMVVw5-132" edge="1">
          <mxGeometry relative="1" as="geometry" />
        </mxCell>
        <mxCell id="tZD9DGKlAg4jo_WMVVw5-146" style="edgeStyle=orthogonalEdgeStyle;rounded=0;orthogonalLoop=1;jettySize=auto;html=1;exitX=0;exitY=0.5;exitDx=0;exitDy=0;entryX=1;entryY=0.5;entryDx=0;entryDy=0;" parent="1" source="tZD9DGKlAg4jo_WMVVw5-98" target="tZD9DGKlAg4jo_WMVVw5-142" edge="1">
          <mxGeometry relative="1" as="geometry" />
        </mxCell>
        <mxCell id="tZD9DGKlAg4jo_WMVVw5-147" value="genre_id" style="text;html=1;align=center;verticalAlign=middle;whiteSpace=wrap;rounded=0;" parent="1" vertex="1">
          <mxGeometry x="1710" y="1880" width="60" height="30" as="geometry" />
        </mxCell>
        <mxCell id="tZD9DGKlAg4jo_WMVVw5-148" style="edgeStyle=orthogonalEdgeStyle;rounded=0;orthogonalLoop=1;jettySize=auto;html=1;exitX=0.5;exitY=1;exitDx=0;exitDy=0;entryX=0.5;entryY=0;entryDx=0;entryDy=0;strokeColor=#00FF00;" parent="1" source="tZD9DGKlAg4jo_WMVVw5-57" target="tZD9DGKlAg4jo_WMVVw5-141" edge="1">
          <mxGeometry relative="1" as="geometry" />
        </mxCell>
        <mxCell id="tZD9DGKlAg4jo_WMVVw5-149" value="game_id" style="text;html=1;align=center;verticalAlign=middle;whiteSpace=wrap;rounded=0;" parent="1" vertex="1">
          <mxGeometry x="1600" y="1710" width="60" height="30" as="geometry" />
        </mxCell>
        <mxCell id="tZD9DGKlAg4jo_WMVVw5-150" style="edgeStyle=orthogonalEdgeStyle;rounded=0;orthogonalLoop=1;jettySize=auto;html=1;exitX=0.5;exitY=1;exitDx=0;exitDy=0;entryX=1;entryY=0.25;entryDx=0;entryDy=0;strokeColor=#FF0000;" parent="1" source="tZD9DGKlAg4jo_WMVVw5-61" target="tZD9DGKlAg4jo_WMVVw5-142" edge="1">
          <mxGeometry relative="1" as="geometry">
            <Array as="points">
              <mxPoint x="2160" y="1750" />
              <mxPoint x="1740" y="1750" />
              <mxPoint x="1740" y="1870" />
            </Array>
          </mxGeometry>
        </mxCell>
        <mxCell id="tZD9DGKlAg4jo_WMVVw5-151" value="" style="group" parent="1" vertex="1" connectable="0">
          <mxGeometry x="1500" y="930" width="200" height="360" as="geometry" />
        </mxCell>
        <mxCell id="tZD9DGKlAg4jo_WMVVw5-152" value="" style="group" parent="tZD9DGKlAg4jo_WMVVw5-151" vertex="1" connectable="0">
          <mxGeometry width="200" height="200" as="geometry" />
        </mxCell>
        <mxCell id="tZD9DGKlAg4jo_WMVVw5-153" value="link_game_tag" style="rounded=0;whiteSpace=wrap;html=1;fillColor=#e1d5e7;strokeColor=#9673a6;" parent="tZD9DGKlAg4jo_WMVVw5-152" vertex="1">
          <mxGeometry width="200" height="40" as="geometry" />
        </mxCell>
        <mxCell id="tZD9DGKlAg4jo_WMVVw5-154" value="&lt;div&gt;game_id: Int&lt;/div&gt;&lt;div&gt;tag_id: Int&lt;/div&gt;&lt;div&gt;user_id: Int&lt;/div&gt;&lt;div&gt;link_cDate: String&lt;/div&gt;" style="rounded=0;whiteSpace=wrap;html=1;fillColor=#e1d5e7;strokeColor=#9673a6;" parent="tZD9DGKlAg4jo_WMVVw5-152" vertex="1">
          <mxGeometry y="40" width="200" height="160" as="geometry" />
        </mxCell>
        <mxCell id="tZD9DGKlAg4jo_WMVVw5-155" value="&lt;div&gt;Links games to tags. Also stores the user who created the link and the time the link was created.&lt;/div&gt;" style="rounded=0;whiteSpace=wrap;html=1;fillColor=#e1d5e7;strokeColor=#9673a6;" parent="tZD9DGKlAg4jo_WMVVw5-151" vertex="1">
          <mxGeometry y="200" width="200" height="160" as="geometry" />
        </mxCell>
        <mxCell id="tZD9DGKlAg4jo_WMVVw5-156" style="edgeStyle=orthogonalEdgeStyle;rounded=0;orthogonalLoop=1;jettySize=auto;html=1;exitX=0.5;exitY=0;exitDx=0;exitDy=0;entryX=0.5;entryY=1;entryDx=0;entryDy=0;strokeColor=#00FF00;" parent="1" source="tZD9DGKlAg4jo_WMVVw5-1" target="tZD9DGKlAg4jo_WMVVw5-155" edge="1">
          <mxGeometry relative="1" as="geometry" />
        </mxCell>
        <mxCell id="tZD9DGKlAg4jo_WMVVw5-157" value="game_id" style="text;html=1;align=center;verticalAlign=middle;whiteSpace=wrap;rounded=0;" parent="1" vertex="1">
          <mxGeometry x="1600" y="1320" width="60" height="30" as="geometry" />
        </mxCell>
        <mxCell id="tZD9DGKlAg4jo_WMVVw5-159" style="edgeStyle=orthogonalEdgeStyle;rounded=0;orthogonalLoop=1;jettySize=auto;html=1;exitX=0;exitY=0.75;exitDx=0;exitDy=0;" parent="1" source="tZD9DGKlAg4jo_WMVVw5-34" target="tZD9DGKlAg4jo_WMVVw5-153" edge="1">
          <mxGeometry relative="1" as="geometry" />
        </mxCell>
        <mxCell id="tZD9DGKlAg4jo_WMVVw5-160" value="tag_id" style="text;html=1;align=center;verticalAlign=middle;whiteSpace=wrap;rounded=0;" parent="1" vertex="1">
          <mxGeometry x="1990" y="600" width="60" height="30" as="geometry" />
        </mxCell>
        <mxCell id="tZD9DGKlAg4jo_WMVVw5-161" style="edgeStyle=orthogonalEdgeStyle;rounded=0;orthogonalLoop=1;jettySize=auto;html=1;exitX=0.5;exitY=1;exitDx=0;exitDy=0;entryX=0.8;entryY=0.994;entryDx=0;entryDy=0;entryPerimeter=0;jumpStyle=arc;jumpSize=16;strokeColor=#FF0000;" parent="1" source="tZD9DGKlAg4jo_WMVVw5-61" target="tZD9DGKlAg4jo_WMVVw5-155" edge="1">
          <mxGeometry relative="1" as="geometry">
            <Array as="points">
              <mxPoint x="2160" y="1750" />
              <mxPoint x="1740" y="1750" />
              <mxPoint x="1740" y="1510" />
              <mxPoint x="1710" y="1510" />
              <mxPoint x="1710" y="1330" />
              <mxPoint x="1660" y="1330" />
            </Array>
          </mxGeometry>
        </mxCell>
      </root>
    </mxGraphModel>
  </diagram>
</mxfile>
